# xmcd
#
# Track frame offsets:
#	150
#	11467
#	21719
#	34263
#	41257
#	48782
#	60025
#	70511
#	80351
#	92002
#	102645
#	114774
#	123627
#	132583
#	142156
#	152284
#	161725
#	172276
#	183674
#	194592
#	206154
#	216194
#	227744
#	237754
#	250595
#
# Disc length: 3508 seconds
#
# Revision: 0
# Processed by: cddbd v1.5.2PL0 Copyright (c) Steve Scherf et al.
# Submitted via: audiograbber 1.83.01
#
DISCID=5d0db219
DTITLE=Red Hot Rockabilly - Got Rockin' on my Mind CD2
DYEAR=19
DGENRE=RoBi
TTITLE0=Griffin Curley - Got Rockin' on my Mind
TTITLE1=Hubbard Orange Ray - Sweet Love
TTITLE2=Stayton Jimmy and his Country Cats - You're gonna treat me Right
TTITLE3=Walker Lanie and his Black Mountain Boys - No use Knocking on my Door
TTITLE4=Foley Webb  - Little Bitty Mama
TTITLE5=Cash Eddie and the Cashiers - Doing all Right
TTITLE6=Vaughn Dale and the Starnotes - How can you be Mean to me
TTITLE7=O'Neil Gradie and the Bella Tones - Baby 'O' Baby
TTITLE8=O'Neil Gradie and the Bella Tones - Turkey Neck Stretch
TTITLE9=Taylor Ray and Alabama Pals - My Hamtramck Baby
TTITLE10=Self G. - Roll on big Mama
TTITLE11=Hanson Jerry - I'm doing Alright
TTITLE12=Wray Lucky with Link and Doug Wray - Teenage Cutie
TTITLE13=Barkle Al - Jumpin from Six to Six
TTITLE14=Gray Phil and his Go Boys - Bluest Boy in Town
TTITLE15=Gray Phil and his Go Boys - Pepper Hot Baby
TTITLE16=B. Graham - Rock 'n' Roll Fever
TTITLE17=Smith Ray and his Rockin' Wranglers - Gone Baby gone
TTITLE18=Smith Ray and his Rockin' Wranglers - Swingin' Boogie
TTITLE19=Pruitt Ralph with his Rhythm Boys - Hey Mr. Porter
TTITLE20=Dale Jimmie - Baby Doll
TTITLE21=Dale Jimmie - Darlin'
TTITLE22=Davenport Bill and his Circle D Ranch Hands - Rock 'n' Roll with Mom and
TTITLE22=Dad
TTITLE23=Hale Rex and his Rhythm Masters - Down at big Mamas House
TTITLE24=Denton Johnny - Hey Babe
EXTD=
EXTT0=
EXTT1=
EXTT2=
EXTT3=
EXTT4=
EXTT5=
EXTT6=
EXTT7=
EXTT8=
EXTT9=
EXTT10=
EXTT11=
EXTT12=
EXTT13=
EXTT14=
EXTT15=
EXTT16=
EXTT17=
EXTT18=
EXTT19=
EXTT20=
EXTT21=
EXTT22=
EXTT23=
EXTT24=
PLAYORDER=
